<mxfile host="app.diagrams.net" modified="2023-08-07T09:46:30.731Z" agent="Mozilla/5.0 (Macintosh; Intel Mac OS X 10_15_7) AppleWebKit/605.1.15 (KHTML, like Gecko) Version/15.3 Safari/605.1.15" version="21.6.6" etag="emZxA151FjR1E690_xQ7" type="github">
  <diagram name="Page-1" id="AHZjYKRVYPt0HwAoM2et">
    <mxGraphModel>
      <root>
        <mxCell id="0" />
        <mxCell id="1" parent="0" />
      </root>
    </mxGraphModel>
  </diagram>
</mxfile>
